<?xml version="1.0" standalone="no"?>
<!DOCTYPE svg PUBLIC "-//W3C//DTD SVG 20010904//EN"
 "http://www.w3.org/TR/2001/REC-SVG-20010904/DTD/svg10.dtd">
<svg version="1.0" xmlns="http://www.w3.org/2000/svg"
 width="1200.000000pt" height="1200.000000pt" viewBox="0 0 1200.000000 1200.000000"
 preserveAspectRatio="xMidYMid meet">
<metadata>
Created by potrace 1.16, written by Peter Selinger 2001-2019
</metadata>
<g transform="translate(0.000000,1200.000000) scale(0.100000,-0.100000)"
fill="#000000" stroke="none">
<path d="M0 6000 l0 -6000 6000 0 6000 0 0 6000 0 6000 -6000 0 -6000 0 0
-6000z m7953 4217 c45 -34 71 -89 64 -138 -9 -68 -375 -690 -632 -1074 -433
-648 -793 -1081 -1073 -1292 -503 -379 -1102 -401 -2022 -73 -372 133 -736
293 -1255 551 -427 212 -582 297 -609 332 -46 61 -15 171 60 218 67 41 106 29
409 -131 891 -471 1639 -769 2160 -861 180 -32 474 -33 615 -2 367 79 670 332
1095 913 305 416 603 879 871 1350 128 225 146 244 231 238 36 -3 62 -13 86
-31z m964 -524 c19 -9 46 -33 60 -55 47 -70 38 -91 -154 -379 -575 -861 -975
-1620 -1093 -2073 -77 -294 -78 -487 -4 -717 104 -322 370 -671 843 -1106
l134 -123 484 0 c266 0 483 -3 483 -6 0 -3 -77 -118 -171 -256 -94 -137 -169
-251 -167 -252 34 -29 307 -234 445 -334 155 -113 184 -139 203 -177 39 -80 7
-177 -72 -217 -66 -34 -84 -25 -402 210 -160 118 -306 226 -323 240 -18 13
-33 20 -33 16 1 -5 119 -182 263 -394 l263 -385 -365 -3 -365 -2 151 -153 c93
-93 154 -163 158 -180 18 -72 -41 -167 -116 -187 -84 -23 -90 -19 -381 261
l-269 259 -1513 0 -1514 0 -72 -112 c-306 -473 -574 -1087 -735 -1685 -28
-101 -94 -147 -190 -129 -47 9 -102 59 -116 105 -10 34 -7 54 25 167 141 510
402 1129 639 1521 30 49 59 99 66 111 l12 22 -568 0 -568 -1 -76 -97 c-129
-164 -258 -309 -447 -503 -175 -179 -391 -381 -435 -406 -31 -17 -112 -16
-147 2 -34 18 -75 69 -84 107 -13 54 4 85 88 165 206 197 492 489 589 603
l106 125 -609 3 c-336 1 -610 5 -610 8 0 3 115 175 256 381 140 206 258 381
260 388 5 11 -160 259 -473 713 -23 35 -43 65 -43 67 0 3 474 5 1053 5 l1054
0 17 61 c73 263 80 481 21 668 -95 299 -455 621 -1005 896 -268 134 -560 254
-1064 436 -192 69 -338 127 -352 140 -60 57 -68 147 -19 221 29 43 80 62 135
49 77 -18 692 -245 965 -356 742 -302 1209 -613 1485 -990 66 -91 133 -227
166 -340 24 -80 27 -112 32 -286 4 -181 2 -204 -22 -325 -14 -71 -29 -139 -32
-151 l-6 -23 1742 0 1743 0 -132 135 c-651 671 -855 1203 -704 1840 110 466
565 1334 1175 2242 154 228 178 253 249 253 28 0 67 -7 86 -17z"/>
<path d="M3451 5063 c-29 -29 -45 -59 -66 -123 -15 -47 -59 -166 -97 -265
-106 -273 -258 -699 -258 -724 0 -7 11 -23 25 -36 27 -28 88 -34 116 -12 22
17 60 93 104 214 l37 101 42 10 c22 6 68 13 101 17 33 4 68 9 77 11 29 8 46
-35 68 -170 23 -146 41 -193 76 -202 53 -13 124 29 124 74 0 14 -13 89 -30
167 -66 313 -131 663 -146 788 -20 171 -25 181 -87 185 -44 3 -51 0 -86 -35z
m38 -389 c16 -35 45 -228 38 -248 -10 -25 -137 -50 -150 -28 -12 18 75 302 92
302 4 0 13 -12 20 -26z"/>
<path d="M5314 5071 c-50 -12 -136 -63 -181 -108 -119 -118 -138 -312 -44
-454 42 -62 100 -101 224 -149 122 -47 157 -76 157 -129 0 -45 -30 -95 -68
-115 -16 -8 -73 -19 -126 -25 -139 -14 -191 -51 -172 -124 16 -65 70 -82 201
-68 170 20 291 106 336 238 41 121 24 221 -51 307 -38 43 -67 59 -163 92 -129
44 -180 85 -206 166 -10 29 -9 43 2 70 18 43 66 84 116 99 55 16 92 -6 147
-91 25 -39 53 -74 64 -80 25 -13 62 1 89 36 34 43 28 105 -17 189 -45 81 -90
117 -178 140 -63 16 -82 17 -130 6z"/>
<path d="M8478 5044 c-27 -30 -36 -66 -48 -181 -22 -213 -61 -530 -75 -618
-42 -260 -39 -339 10 -371 33 -21 90 -11 110 20 9 14 23 90 35 202 11 98 25
202 31 231 13 65 54 127 109 164 55 37 87 38 100 3 6 -14 10 -149 10 -309 0
-282 0 -284 22 -299 48 -34 111 -11 132 47 12 36 18 520 6 591 -13 83 -45 161
-74 181 -34 25 -88 18 -171 -21 -57 -28 -79 -34 -88 -25 -8 8 -6 43 8 138 33
222 27 251 -56 260 -34 4 -48 1 -61 -13z"/>
<path d="M4800 4893 c-43 -40 -49 -84 -17 -117 30 -30 64 -33 112 -11 54 27
70 83 34 129 -29 37 -87 36 -129 -1z"/>
<path d="M7235 4766 c-68 -23 -171 -74 -204 -101 -25 -22 -31 -34 -31 -65 0
-43 20 -70 52 -70 11 0 59 17 107 39 105 47 136 55 161 41 41 -22 62 -98 40
-140 -12 -22 -29 -26 -150 -40 -119 -14 -197 -47 -251 -108 -46 -53 -53 -74
-47 -148 4 -50 9 -60 54 -105 67 -70 125 -108 219 -146 107 -44 180 -45 217
-5 14 15 30 36 36 47 30 60 102 432 102 530 0 118 -45 224 -112 265 -39 24
-130 26 -193 6z m103 -485 c27 -17 -10 -189 -42 -192 -56 -6 -157 33 -191 72
-28 34 -32 70 -10 89 39 32 208 54 243 31z"/>
<path d="M5863 4728 c-37 -42 -43 -66 -53 -221 -6 -85 -14 -208 -20 -273 -20
-244 -13 -284 50 -284 67 0 95 29 145 150 29 71 146 271 178 308 36 40 57 24
57 -44 0 -18 -9 -91 -20 -162 -23 -142 -19 -174 25 -194 69 -31 150 38 249
213 57 102 91 149 108 149 11 0 10 -103 -3 -180 -6 -36 -11 -100 -12 -143 0
-68 2 -80 23 -102 27 -28 58 -32 99 -11 39 21 51 54 62 180 6 61 17 166 25
233 27 230 16 315 -43 329 -47 12 -92 -23 -184 -144 -47 -62 -101 -129 -121
-148 l-35 -36 -7 82 c-9 97 -28 168 -57 204 -16 20 -29 26 -60 26 -71 0 -117
-38 -223 -182 -31 -43 -58 -78 -61 -78 -3 0 -3 66 1 148 6 141 6 148 -15 175
-29 35 -78 37 -108 5z"/>
<path d="M7871 4704 c-107 -29 -165 -82 -182 -167 -22 -106 12 -164 150 -261
86 -60 131 -107 131 -138 0 -11 -14 -33 -31 -50 -32 -33 -42 -33 -182 -12 -57
9 -87 -15 -87 -70 0 -29 6 -48 18 -59 33 -30 105 -49 187 -50 93 -1 134 14
194 75 53 53 75 111 69 188 -6 81 -39 126 -157 215 -102 77 -116 94 -107 131
14 53 99 56 205 5 73 -34 96 -31 124 17 28 48 9 94 -56 137 -83 55 -172 67
-276 39z"/>
<path d="M3981 4654 c-20 -26 -26 -59 -36 -219 -3 -49 -15 -172 -26 -271 -25
-215 -21 -237 45 -242 50 -4 68 13 118 113 111 222 241 402 291 405 12 0 8
-104 -10 -282 -14 -143 -15 -169 -3 -183 23 -28 58 -36 101 -25 56 15 69 40
69 136 0 45 7 146 16 225 24 220 8 323 -57 350 -70 28 -162 -28 -279 -173 -41
-50 -80 -92 -85 -92 -6 -1 -12 49 -15 119 -7 144 -16 165 -70 165 -29 0 -43
-6 -59 -26z"/>
<path d="M4778 4610 c-42 -33 -57 -89 -88 -345 -34 -277 -35 -304 -17 -329 18
-24 86 -24 127 0 39 24 47 54 54 204 5 115 32 309 55 387 13 44 4 71 -30 88
-38 20 -72 19 -101 -5z"/>
</g>
</svg>
