<svg viewBox="0 0 151 98" xmlns="http://www.w3.org/2000/svg"><path d="M104.79 24.51c0 13.529-13.794 24.496-30.81 24.496S43.17 38.039 43.17 24.51C43.17 10.981 56.964.014 73.98.014s30.81 10.967 30.81 24.496z" fill="#729fcf"/><path d="M103.42 25.35c0 13.43-13.234 24.318-29.56 24.318-16.325 0-29.56-10.887-29.56-24.318 0-13.43 13.234-24.318 29.56-24.318 16.325 0 29.56 10.887 29.56 24.318z" fill="#eeeeec"/><path d="M106.06 55.54c0 12.274-11.193 22.223-25.001 22.223-13.808 0-25.001-9.95-25.001-22.223 0-12.274 11.193-22.223 25.001-22.223 13.808 0 25.001 9.95 25.001 22.223z" fill="#eeeeec"/><path d="M125.76 38.4c0 12.274-11.193 22.223-25.001 22.223-13.808 0-25.001-9.95-25.001-22.223 0-12.274 11.193-22.223 25.001-22.223 13.808 0 25.001 9.95 25.001 22.223zm-55.563 7.07c0 12.274-11.193 22.223-25.001 22.223-13.808 0-25.001-9.95-25.001-22.223 0-12.274 11.193-22.223 25.001-22.223 13.808 0 25.001 9.95 25.001 22.223z" fill="#729fcf"/><path d="M72.616 46.64c0 12.274-11.473 22.223-25.626 22.223s-25.626-9.95-25.626-22.223c0-12.274 11.473-22.223 25.626-22.223s25.626 9.95 25.626 22.223z" fill="#eeeeec"/><path d="M40.397 64.94c0 9.903-8.932 17.93-19.951 17.93C9.428 82.87.495 74.842.495 64.94s8.932-17.93 19.951-17.93c11.018 0 19.951 8.028 19.951 17.93z" fill="#729fcf"/><path d="M40.958 65.34c0 9.305-8.772 16.848-19.593 16.848S1.772 74.645 1.772 65.34s8.772-16.848 19.593-16.848 19.593 7.543 19.593 16.848zm85.232-24.81c0 12.865-11.393 23.295-25.448 23.295S75.294 53.396 75.294 40.53c0-12.865 11.393-23.295 25.448-23.295S126.19 27.664 126.19 40.53z" fill="#eeeeec"/><path d="M150.5 45.94c0 12.274-11.193 22.223-25.001 22.223-13.808 0-25.001-9.95-25.001-22.223 0-12.274 11.193-22.223 25.001-22.223 13.808 0 25.001 9.95 25.001 22.223z" fill="#729fcf"/><path d="M149.76 45.84c0 11.583-11.273 20.973-25.18 20.973-13.906 0-25.18-9.39-25.18-20.973 0-11.583 11.273-20.973 25.18-20.973 13.906 0 25.18 9.39 25.18 20.973z" fill="#eeeeec"/><path d="M41.912 79.34c0 6.555-5.201 11.869-11.617 11.869-6.416 0-11.617-5.314-11.617-11.869s5.201-11.869 11.617-11.869c6.416 0 11.617 5.314 11.617 11.869z" fill="#729fcf"/><path d="M42.267 78.54c0 6.457-5.121 11.691-11.438 11.691S19.391 84.997 19.391 78.54s5.121-11.691 11.438-11.691 11.438 5.234 11.438 11.691z" fill="#eeeeec"/><path d="M84.339 75.74c0 12.274-11.193 22.223-25.001 22.223-13.808 0-25.001-9.95-25.001-22.223 0-12.274 11.193-22.223 25.001-22.223 13.808 0 25.001 9.95 25.001 22.223z" fill="#729fcf"/><path d="M84.475 75.24c0 12.014-10.93 21.754-24.413 21.754s-24.413-9.74-24.413-21.754 10.93-21.754 24.413-21.754 24.413 9.74 24.413 21.754z" fill="#eeeeec"/><path d="M139.39 65.64c0 12.274-11.193 22.223-25.001 22.223-13.808 0-25.001-9.95-25.001-22.223s11.193-22.223 25.001-22.223c13.808 0 25.001 9.95 25.001 22.223z" fill="#729fcf"/><path d="M138.06 65.44c0 11.805-11.213 21.375-25.046 21.375s-25.046-9.57-25.046-21.375 11.213-21.375 25.046-21.375 25.046 9.57 25.046 21.375z" fill="#eeeeec"/><path d="M90.958 93.64c-7.972 1.318-15.502-3.805-16.82-11.443-1.318-7.638 4.076-14.898 12.048-16.217 7.972-1.318 15.502 3.805 16.82 11.443 1.318 7.638-4.076 14.898-12.048 16.216z" fill="#729fcf"/><path d="M91.268 92.24c-7.838 1.318-15.242-3.805-16.538-11.443s4.008-14.898 11.845-16.217c7.838-1.318 15.242 3.805 16.538 11.443 1.296 7.638-4.008 14.898-11.845 16.217z" fill="#eeeeec"/></svg>