<?xml version="1.0" encoding="utf-8"?>
<svg viewBox="-0.083 57.394 300.262 58.186" width="300.262" height="58.186" xmlns="http://www.w3.org/2000/svg">
  <g transform="matrix(0.1, 0, 0, -0.1, 0, 169)" fill="#000000" stroke="none">
    <path d="M920 1108 c-19 -5 -52 -16 -73 -25 -36 -16 -41 -15 -108 7 -57 18 -84 22 -139 17 -38 -3 -82 -13 -99 -21 -39 -20 -60 -20 -102 2 -25 12 -58 17 -124 17 -80 0 -95 -3 -137 -27 -44 -27 -99 -86 -126 -136 -13 -26 -17 -232 -4 -232 4 0 13 -14 21 -31 19 -44 74 -95 128 -120 67 -30 179 -30 249 0 l52 23 42 -22 c60 -31 185 -31 253 -1 l48 21 52 -22 c71 -31 174 -31 244 -1 l51 23 49 -22 c67 -30 179 -30 246 0 l48 21 52 -21 c71 -28 193 -28 258 1 l47 21 48 -22 c68 -30 173 -30 243 1 l51 22 48 -21 c66 -30 192 -31 250 -1 l41 21 53 -21 c73 -29 186 -30 249 -2 56 25 124 91 140 138 7 19 17 35 21 35 4 0 8 41 8 90 0 50 -4 90 -9 90 -5 0 -11 13 -14 30 -9 44 -83 119 -144 146 -53 24 -159 38 -169 22 -3 -4 -14 -8 -24 -8 -10 0 -38 -8 -62 -19 -43 -18 -44 -18 -83 2 -59 31 -197 34 -250 6 -41 -22 -62 -21 -135 6 -55 21 -167 16 -223 -11 -36 -17 -39 -17 -105 5 -82 27 -173 26 -233 -1 -50 -22 -62 -22 -99 -3 -16 8 -39 17 -52 19 -13 3 -25 5 -28 6 -21 7 -107 -4 -163 -22 -65 -20 -69 -20 -105 -4 -50 23 -139 34 -182 24z m-591 -29 c28 -6 67 -21 86 -35 l36 -24 37 25 c84 56 223 50 295 -13 15 -14 19 -14 35 0 71 63 210 69 294 13 l37 -25 36 24 c46 32 122 48 177 38 46 -9 115 -39 124 -53 3 -5 17 -1 32 9 86 59 205 62 287 6 l36 -24 37 25 c84 56 223 50 295 -13 15 -14 19 -14 35 0 70 62 210 69 291 15 l35 -23 58 30 c172 88 377 -33 378 -223 0 -76 -17 -125 -64 -178 -84 -96 -201 -119 -315 -62 -57 29 -63 30 -80 15 -58 -53 -195 -59 -275 -12 l-44 26 -51 -27 c-87 -44 -203 -41 -267 9 -24 19 -24 19 -86 -11 -84 -42 -152 -43 -234 -1 l-59 29 -59 -29 c-82 -42 -150 -41 -235 1 -57 29 -63 30 -80 15 -58 -53 -195 -59 -276 -12 l-45 27 -45 -27 c-81 -47 -218 -41 -276 12 -17 15 -23 14 -80 -15 -79 -39 -150 -42 -224 -7 -97 45 -146 119 -153 227 -9 148 83 251 250 278 4 0 30 -4 57 -10z"/>
    <path d="M239 815 c-24 -32 -39 -61 -35 -70 7 -19 26 -20 26 -2 0 8 12 19 26 26 25 11 26 11 20 -14 -5 -18 -2 -25 8 -25 10 0 17 17 21 55 13 101 -6 109 -66 30z"/>
    <path d="M961 835 c-25 -44 -35 -80 -26 -95 7 -12 65 91 65 116 0 25 -18 15 -39 -21z"/>
    <path d="M1618 842 c-43 -46 -62 -82 -50 -94 7 -7 18 4 37 36 15 25 29 46 31 46 2 0 1 -13 -2 -30 -8 -37 5 -38 36 -5 32 34 44 31 25 -5 -15 -29 -13 -50 3 -50 7 0 42 88 42 104 0 12 -36 6 -58 -10 -21 -14 -22 -14 -22 5 0 31 -15 33 -42 3z"/>
    <path d="M1981 820 c-23 -29 -41 -58 -41 -65 0 -23 18 -27 29 -7 6 11 20 22 31 25 17 4 20 2 15 -14 -12 -36 8 -42 20 -6 15 44 14 109 -2 114 -6 2 -30 -19 -52 -47z"/>
    <path d="M2351 856 c-43 -14 -48 -28 -19 -56 19 -18 21 -22 8 -31 -8 -5 -23 -7 -32 -5 -22 5 -23 -7 -4 -24 12 -9 21 -9 43 2 35 16 43 54 14 63 -12 3 -21 10 -21 15 0 12 37 23 50 15 5 -3 10 1 10 9 0 22 -11 25 -49 12z"/>
    <path d="M2659 821 c-20 -38 -23 -54 -16 -72 l9 -24 10 28 c12 34 37 36 35 3 -1 -14 1 -25 6 -25 4 -1 7 1 7 4 0 3 14 29 30 58 18 33 26 58 21 66 -7 10 -12 6 -22 -14 -8 -16 -24 -32 -37 -36 -21 -8 -22 -8 -6 16 14 22 12 45 -4 45 -4 0 -19 -22 -33 -49z"/>
    <path d="M649 829 c-21 -30 -23 -31 -30 -12 -4 12 -12 24 -18 27 -13 9 -61 -56 -61 -82 0 -35 19 -25 36 18 20 51 30 46 33 -15 2 -36 25 -31 40 10 6 19 23 43 37 54 29 23 30 31 5 31 -11 0 -30 -14 -42 -31z"/>
    <path d="M1288 849 c-24 -14 -22 -35 5 -54 19 -13 20 -17 7 -25 -8 -6 -23 -8 -32 -6 -22 5 -24 -20 -2 -28 20 -8 74 20 74 39 0 7 -10 21 -22 30 -20 13 -21 17 -8 25 8 5 23 7 33 4 11 -3 17 0 17 10 0 18 -45 21 -72 5z"/>
  </g>
</svg>